<?xml version="1.0" standalone="no"?>
<!DOCTYPE svg PUBLIC "-//W3C//DTD SVG 20010904//EN"
 "http://www.w3.org/TR/2001/REC-SVG-20010904/DTD/svg10.dtd">
<svg xmlns="http://www.w3.org/2000/svg" version="1.0" viewBox="0 0 238.000000 226.000000" preserveAspectRatio="xMidYMid meet">

        <g transform="translate(0.000000,226.000000) scale(0.100000,-0.100000)" fill="#000000" stroke="none">
        <path d="M1170 2033 c-51 -19 -72 -80 -46 -131 30 -58 94 -70 145 -26 25 25 25 30 31 64 0 40 -7 60 -41 85 -28 15 -62 18 -89 8z"/>
        <path d="M1160 1665 l-45 -45 355 -355 354 -354 -308 -307 -307 -308 -355 355 -354 354 -46 -47 -47 -46 401 -403 402 -403 394 395 c217 218 396 400 397 405 1 5 -177 188 -397 407 l-400 397 -44 -45z"/>
        <path d="M732 1237 c-34 -34 -62 -66 -62 -70 0 -4 118 -7 263 -7 l262 0 125 -125 125 -125 -118 -117 -117 -118 -107 108 -108 107 60 2 c33 1 87 2 119 2 33 1 61 6 63 11 2 6 -23 36 -55 68 l-58 57 -224 -2 -225 -3 268 -269 268 -269 205 204 c112 112 204 208 204 214 0 5 -87 96 -192 202 l-193 193 -220 0 -221 0 -62 -63z"/>
        </g>
        </svg>