<svg width="357" height="252" viewBox="0 0 357 252" fill="none" xmlns="http://www.w3.org/2000/svg">
<rect width="356.602" height="252" rx="20" fill="black"/>
<path d="M112.648 137L105.638 127.7H104.062V137H99.4487V115.182H104.062V123.896H104.988L112.233 115.182H117.975L109.463 125.303L118.369 137H112.648ZM127.67 137.309C126.626 137.309 125.695 137.128 124.879 136.766C124.062 136.396 123.416 135.853 122.94 135.136C122.471 134.411 122.237 133.509 122.237 132.43C122.237 131.521 122.404 130.757 122.737 130.139C123.071 129.521 123.526 129.024 124.101 128.648C124.676 128.271 125.33 127.987 126.061 127.795C126.8 127.604 127.574 127.469 128.384 127.391C129.335 127.291 130.102 127.199 130.685 127.114C131.267 127.021 131.69 126.886 131.953 126.709C132.215 126.531 132.347 126.268 132.347 125.92V125.857C132.347 125.182 132.134 124.66 131.708 124.29C131.288 123.921 130.692 123.737 129.918 123.737C129.101 123.737 128.451 123.918 127.968 124.28C127.485 124.635 127.166 125.082 127.009 125.622L122.812 125.281C123.025 124.287 123.444 123.428 124.069 122.703C124.694 121.972 125.5 121.411 126.487 121.02C127.482 120.622 128.632 120.423 129.939 120.423C130.848 120.423 131.718 120.53 132.549 120.743C133.387 120.956 134.129 121.286 134.776 121.734C135.429 122.181 135.944 122.756 136.32 123.46C136.697 124.156 136.885 124.99 136.885 125.963V137H132.581V134.731H132.453C132.19 135.242 131.839 135.693 131.399 136.084C130.958 136.467 130.429 136.769 129.811 136.989C129.193 137.202 128.48 137.309 127.67 137.309ZM128.97 134.177C129.637 134.177 130.227 134.045 130.738 133.783C131.249 133.513 131.651 133.151 131.942 132.696C132.233 132.241 132.379 131.727 132.379 131.151V129.415C132.237 129.507 132.041 129.592 131.793 129.67C131.551 129.741 131.278 129.809 130.972 129.873C130.667 129.93 130.362 129.983 130.056 130.033C129.751 130.075 129.474 130.114 129.225 130.15C128.693 130.228 128.227 130.352 127.83 130.523C127.432 130.693 127.123 130.924 126.903 131.215C126.683 131.499 126.573 131.854 126.573 132.281C126.573 132.898 126.796 133.371 127.244 133.697C127.698 134.017 128.274 134.177 128.97 134.177ZM142.806 143.136V120.636H147.28V123.385H147.483C147.682 122.945 147.969 122.497 148.346 122.043C148.729 121.581 149.226 121.197 149.837 120.892C150.455 120.58 151.222 120.423 152.138 120.423C153.332 120.423 154.432 120.736 155.441 121.361C156.449 121.979 157.256 122.913 157.859 124.163C158.463 125.406 158.765 126.964 158.765 128.839C158.765 130.665 158.47 132.206 157.881 133.463C157.298 134.713 156.503 135.661 155.494 136.308C154.493 136.947 153.371 137.266 152.128 137.266C151.247 137.266 150.498 137.121 149.88 136.83C149.269 136.538 148.768 136.173 148.378 135.732C147.987 135.285 147.689 134.834 147.483 134.379H147.344V143.136H142.806ZM147.248 128.818C147.248 129.791 147.383 130.64 147.653 131.364C147.923 132.089 148.314 132.653 148.825 133.058C149.337 133.456 149.958 133.655 150.69 133.655C151.428 133.655 152.053 133.452 152.565 133.048C153.076 132.636 153.463 132.067 153.726 131.343C153.996 130.612 154.131 129.77 154.131 128.818C154.131 127.874 153.999 127.043 153.736 126.325C153.474 125.608 153.087 125.047 152.575 124.642C152.064 124.237 151.435 124.035 150.69 124.035C149.951 124.035 149.326 124.23 148.815 124.621C148.31 125.011 147.923 125.565 147.653 126.283C147.383 127 147.248 127.845 147.248 128.818ZM162.606 124.205V120.636H177.435V124.205H172.162V137H167.837V124.205H162.606ZM186.922 131.013L192.814 120.636H197.288V137H192.963V126.592L187.093 137H182.586V120.636H186.922V131.013ZM214.715 127.007V130.576H206.171V127.007H214.715ZM207.662 120.636V137H203.326V120.636H207.662ZM217.559 120.636V137H213.255V120.636H217.559ZM223.48 137V120.636H228.019V126.986H229.297L233.75 120.636H239.077L233.292 128.754L239.141 137H233.75L229.712 131.194H228.019V137H223.48ZM248.125 137.309C247.081 137.309 246.15 137.128 245.333 136.766C244.517 136.396 243.87 135.853 243.394 135.136C242.926 134.411 242.691 133.509 242.691 132.43C242.691 131.521 242.858 130.757 243.192 130.139C243.526 129.521 243.98 129.024 244.556 128.648C245.131 128.271 245.784 127.987 246.516 127.795C247.255 127.604 248.029 127.469 248.838 127.391C249.79 127.291 250.557 127.199 251.139 127.114C251.722 127.021 252.144 126.886 252.407 126.709C252.67 126.531 252.801 126.268 252.801 125.92V125.857C252.801 125.182 252.588 124.66 252.162 124.29C251.743 123.921 251.147 123.737 250.372 123.737C249.556 123.737 248.906 123.918 248.423 124.28C247.94 124.635 247.62 125.082 247.464 125.622L243.267 125.281C243.48 124.287 243.899 123.428 244.524 122.703C245.149 121.972 245.955 121.411 246.942 121.02C247.936 120.622 249.087 120.423 250.394 120.423C251.303 120.423 252.173 120.53 253.004 120.743C253.842 120.956 254.584 121.286 255.23 121.734C255.884 122.181 256.399 122.756 256.775 123.46C257.152 124.156 257.34 124.99 257.34 125.963V137H253.036V134.731H252.908C252.645 135.242 252.294 135.693 251.853 136.084C251.413 136.467 250.884 136.769 250.266 136.989C249.648 137.202 248.934 137.309 248.125 137.309ZM249.424 134.177C250.092 134.177 250.681 134.045 251.193 133.783C251.704 133.513 252.105 133.151 252.397 132.696C252.688 132.241 252.833 131.727 252.833 131.151V129.415C252.691 129.507 252.496 129.592 252.247 129.67C252.006 129.741 251.733 129.809 251.427 129.873C251.122 129.93 250.816 129.983 250.511 130.033C250.206 130.075 249.929 130.114 249.68 130.15C249.147 130.228 248.682 130.352 248.284 130.523C247.887 130.693 247.578 130.924 247.358 131.215C247.137 131.499 247.027 131.854 247.027 132.281C247.027 132.898 247.251 133.371 247.698 133.697C248.153 134.017 248.728 134.177 249.424 134.177Z" fill="white"/>
</svg>
