<svg width="449" height="622" viewBox="0 0 449 622" fill="none" xmlns="http://www.w3.org/2000/svg">
<rect width="449" height="622" rx="20" fill="black"/>
<path d="M71.3102 336L54.9537 314.299H51.2747V336H40.5112V285.091H51.2747V305.425H53.4374L70.3408 285.091H83.7392L63.8777 308.706L84.659 336H71.3102ZM106.361 336.721C103.925 336.721 101.754 336.298 99.8479 335.453C97.9421 334.591 96.4341 333.324 95.3238 331.65C94.23 329.96 93.6831 327.855 93.6831 325.336C93.6831 323.215 94.0726 321.433 94.8515 319.991C95.6303 318.55 96.691 317.39 98.0333 316.511C99.3756 315.633 100.9 314.97 102.607 314.523C104.331 314.075 106.137 313.76 108.026 313.578C110.247 313.346 112.037 313.131 113.396 312.932C114.754 312.716 115.74 312.402 116.354 311.987C116.967 311.573 117.273 310.96 117.273 310.148V309.999C117.273 308.424 116.776 307.206 115.782 306.344C114.804 305.483 113.412 305.052 111.606 305.052C109.7 305.052 108.184 305.474 107.057 306.32C105.93 307.148 105.184 308.192 104.82 309.452L95.0255 308.656C95.5226 306.336 96.5004 304.331 97.9587 302.641C99.417 300.934 101.298 299.625 103.601 298.713C105.922 297.785 108.606 297.321 111.655 297.321C113.777 297.321 115.807 297.57 117.746 298.067C119.701 298.564 121.433 299.335 122.941 300.379C124.466 301.423 125.667 302.765 126.545 304.406C127.424 306.03 127.863 307.977 127.863 310.247V336H117.82V330.705H117.522C116.909 331.898 116.088 332.951 115.061 333.862C114.034 334.757 112.799 335.461 111.357 335.975C109.915 336.472 108.25 336.721 106.361 336.721ZM109.393 329.413C110.951 329.413 112.327 329.106 113.52 328.493C114.713 327.863 115.649 327.018 116.329 325.957C117.008 324.897 117.348 323.695 117.348 322.353V318.301C117.016 318.517 116.561 318.715 115.981 318.898C115.417 319.063 114.779 319.221 114.067 319.37C113.354 319.503 112.641 319.627 111.929 319.743C111.216 319.842 110.57 319.933 109.99 320.016C108.747 320.199 107.662 320.489 106.734 320.886C105.806 321.284 105.085 321.823 104.571 322.502C104.057 323.165 103.8 323.994 103.8 324.988C103.8 326.43 104.322 327.532 105.366 328.294C106.427 329.04 107.769 329.413 109.393 329.413ZM141.678 350.318V297.818H152.119V304.232H152.591C153.055 303.204 153.726 302.16 154.605 301.099C155.499 300.022 156.659 299.127 158.085 298.415C159.526 297.686 161.316 297.321 163.454 297.321C166.238 297.321 168.807 298.05 171.16 299.509C173.513 300.95 175.394 303.129 176.803 306.046C178.211 308.946 178.916 312.584 178.916 316.959C178.916 321.218 178.228 324.814 176.852 327.747C175.493 330.664 173.637 332.876 171.284 334.384C168.948 335.876 166.329 336.621 163.429 336.621C161.374 336.621 159.626 336.282 158.184 335.602C156.759 334.923 155.591 334.069 154.679 333.042C153.768 331.998 153.072 330.946 152.591 329.885H152.268V350.318H141.678ZM152.044 316.909C152.044 319.179 152.359 321.16 152.989 322.85C153.618 324.54 154.53 325.858 155.723 326.803C156.916 327.731 158.366 328.195 160.073 328.195C161.797 328.195 163.255 327.722 164.448 326.778C165.641 325.817 166.545 324.491 167.158 322.8C167.788 321.094 168.102 319.13 168.102 316.909C168.102 314.705 167.796 312.766 167.183 311.092C166.569 309.419 165.666 308.109 164.473 307.165C163.28 306.22 161.813 305.748 160.073 305.748C158.35 305.748 156.891 306.204 155.698 307.115C154.522 308.027 153.618 309.319 152.989 310.993C152.359 312.667 152.044 314.639 152.044 316.909ZM187.878 306.146V297.818H222.48V306.146H210.175V336H200.083V306.146H187.878ZM244.617 322.03L258.363 297.818H268.803V336H258.711V311.714L245.014 336H234.499V297.818H244.617V322.03ZM309.466 312.683V321.011H289.53V312.683H309.466ZM293.01 297.818V336H282.892V297.818H293.01ZM316.103 297.818V336H306.06V297.818H316.103ZM329.918 336V297.818H340.508V312.634H343.491L353.881 297.818H366.31L352.812 316.76L366.459 336H353.881L344.46 322.452H340.508V336H329.918ZM387.422 336.721C384.986 336.721 382.815 336.298 380.909 335.453C379.003 334.591 377.495 333.324 376.385 331.65C375.291 329.96 374.744 327.855 374.744 325.336C374.744 323.215 375.134 321.433 375.912 319.991C376.691 318.55 377.752 317.39 379.094 316.511C380.437 315.633 381.961 314.97 383.668 314.523C385.392 314.075 387.198 313.76 389.087 313.578C391.308 313.346 393.098 313.131 394.456 312.932C395.815 312.716 396.801 312.402 397.415 311.987C398.028 311.573 398.334 310.96 398.334 310.148V309.999C398.334 308.424 397.837 307.206 396.843 306.344C395.865 305.483 394.473 305.052 392.667 305.052C390.761 305.052 389.245 305.474 388.118 306.32C386.991 307.148 386.245 308.192 385.88 309.452L376.086 308.656C376.584 306.336 377.561 304.331 379.02 302.641C380.478 300.934 382.359 299.625 384.662 298.713C386.982 297.785 389.667 297.321 392.716 297.321C394.838 297.321 396.868 297.57 398.807 298.067C400.762 298.564 402.494 299.335 404.002 300.379C405.527 301.423 406.728 302.765 407.606 304.406C408.485 306.03 408.924 307.977 408.924 310.247V336H398.881V330.705H398.583C397.97 331.898 397.149 332.951 396.122 333.862C395.094 334.757 393.86 335.461 392.418 335.975C390.976 336.472 389.311 336.721 387.422 336.721ZM390.454 329.413C392.012 329.413 393.388 329.106 394.581 328.493C395.774 327.863 396.71 327.018 397.39 325.957C398.069 324.897 398.409 323.695 398.409 322.353V318.301C398.077 318.517 397.622 318.715 397.042 318.898C396.478 319.063 395.84 319.221 395.128 319.37C394.415 319.503 393.702 319.627 392.99 319.743C392.277 319.842 391.631 319.933 391.051 320.016C389.808 320.199 388.723 320.489 387.795 320.886C386.866 321.284 386.146 321.823 385.632 322.502C385.118 323.165 384.861 323.994 384.861 324.988C384.861 326.43 385.383 327.532 386.427 328.294C387.488 329.04 388.83 329.413 390.454 329.413Z" fill="white"/>
</svg>
