<svg width="34" height="35" viewBox="0 0 34 35" fill="none" xmlns="http://www.w3.org/2000/svg">
<rect y="0.700195" width="34" height="34" rx="17" fill="white"/>
<path d="M19.2957 19.996C17.4261 21.9249 17.2891 24.3313 17.1284 29.6003C22.042 29.6003 25.4332 29.5833 27.1836 27.8832C28.8844 26.1328 28.9007 22.5794 28.9007 17.828C23.6303 17.9983 21.2253 18.1257 19.2965 19.9953M5.09998 17.8273C5.09998 22.5787 5.11701 26.1321 6.81706 27.8825C8.56746 29.5833 11.9587 29.5996 16.8722 29.5996C16.7019 24.3291 16.5746 21.9241 14.705 19.9953C12.7761 18.1257 10.3697 17.9887 5.10072 17.828M16.8722 5.80029C11.9676 5.80029 8.56746 5.81732 6.81706 7.51738C5.11701 9.26778 5.09998 12.8212 5.09998 17.5726C10.3704 17.4023 12.7754 17.2749 14.7042 15.4053C16.5739 13.4764 16.7108 11.07 16.8715 5.80103M19.2942 15.4053C17.4246 13.4757 17.2891 11.0708 17.127 5.80029C22.0405 5.80029 25.4317 5.81732 27.1822 7.51738C28.8829 9.26778 28.8992 12.8212 28.8992 17.5726C23.6288 17.4023 21.2231 17.2749 19.2942 15.4053Z" fill="black"/>
</svg>
