<svg width="17" height="21" viewBox="0 0 17 21" fill="none" xmlns="http://www.w3.org/2000/svg">
<path d="M16.3971 14.7893C16.3971 14.9902 16.3599 15.2524 16.2855 15.5761C16.2111 15.8998 16.133 16.1546 16.0512 16.3406C15.8949 16.7126 15.441 17.107 14.6896 17.5237C13.9902 17.9031 13.2982 18.0928 12.6137 18.0928C12.4128 18.0928 12.2156 18.0798 12.0221 18.0538C11.8287 18.0277 11.6148 17.9812 11.3804 17.9143C11.146 17.8473 10.9712 17.7934 10.8559 17.7524C10.7405 17.7115 10.5341 17.6353 10.2364 17.5237C9.93881 17.412 9.75652 17.3451 9.68956 17.3228C8.96039 17.0623 8.30935 16.7536 7.73643 16.3964C6.79149 15.8086 5.80935 15.0051 4.79 13.9857C3.77066 12.9664 2.96709 11.9842 2.37929 11.0393C2.02215 10.4664 1.71337 9.81532 1.45295 9.08615C1.43063 9.01919 1.36366 8.8369 1.25206 8.53928C1.14045 8.24166 1.06419 8.03519 1.02326 7.91986C0.982341 7.80453 0.928397 7.62968 0.861433 7.3953C0.794468 7.16093 0.747965 6.94702 0.721924 6.75356C0.695882 6.56011 0.682861 6.36294 0.682861 6.16205C0.682861 5.47752 0.872593 4.78556 1.25206 4.08615C1.66872 3.33467 2.06307 2.8808 2.43509 2.72455C2.62111 2.6427 2.87594 2.56458 3.1996 2.49017C3.52326 2.41577 3.78554 2.37856 3.98643 2.37856C4.0906 2.37856 4.16872 2.38972 4.22081 2.41205C4.35474 2.45669 4.55191 2.73943 4.81233 3.26026C4.89417 3.40163 5.00578 3.60252 5.14715 3.86294C5.28852 4.12335 5.41872 4.35959 5.53777 4.57164C5.65682 4.7837 5.77215 4.98273 5.88375 5.16874C5.90608 5.1985 5.97118 5.29151 6.07907 5.44776C6.18695 5.60401 6.26694 5.73608 6.31902 5.84397C6.37111 5.95185 6.39715 6.05788 6.39715 6.16205C6.39715 6.31086 6.29112 6.49687 6.07907 6.72008C5.86701 6.9433 5.63636 7.14791 5.3871 7.33392C5.13785 7.51993 4.90719 7.71711 4.69514 7.92544C4.48308 8.13377 4.37706 8.3049 4.37706 8.43883C4.37706 8.5058 4.39566 8.5895 4.43286 8.68995C4.47006 8.79039 4.50169 8.86666 4.52773 8.91874C4.55377 8.97083 4.60585 9.06011 4.68398 9.1866C4.7621 9.31309 4.80489 9.38377 4.81233 9.39865C5.3778 10.418 6.02512 11.2923 6.75429 12.0214C7.48346 12.7506 8.35771 13.3979 9.37706 13.9634C9.39194 13.9708 9.46262 14.0136 9.58911 14.0917C9.7156 14.1699 9.80488 14.2219 9.85697 14.248C9.90905 14.274 9.98532 14.3056 10.0858 14.3428C10.1862 14.3801 10.2699 14.3987 10.3369 14.3987C10.4708 14.3987 10.6419 14.2926 10.8503 14.0806C11.0586 13.8685 11.2558 13.6379 11.4418 13.3886C11.6278 13.1394 11.8324 12.9087 12.0556 12.6966C12.2788 12.4846 12.4649 12.3786 12.6137 12.3786C12.7178 12.3786 12.8239 12.4046 12.9317 12.4567C13.0396 12.5088 13.1717 12.5888 13.328 12.6966C13.4842 12.8045 13.5772 12.8696 13.607 12.892C13.793 13.0036 13.992 13.1189 14.2041 13.2379C14.4161 13.357 14.6524 13.4872 14.9128 13.6286C15.1732 13.7699 15.3741 13.8815 15.5155 13.9634C16.0363 14.2238 16.319 14.421 16.3637 14.5549C16.386 14.607 16.3971 14.6851 16.3971 14.7893Z" fill="black"/>
</svg>
