<svg width="34" height="35" viewBox="0 0 34 35" fill="none" xmlns="http://www.w3.org/2000/svg">
<rect y="0.700195" width="34" height="34" rx="17" fill="white"/>
<path d="M20.87 11.7505H7.08331V26.6255H10.9206V21.7861H18.2734L21.6282 26.6255H25.925L22.2256 21.7638C23.3745 21.5854 24.2017 21.1617 24.7072 20.4926C25.2127 19.8236 25.4654 18.7531 25.4654 17.3258V16.2108C25.4654 15.3633 25.3736 14.6943 25.2127 14.1813C25.0518 13.6684 24.7761 13.2224 24.3855 12.821C23.9719 12.4418 23.5124 12.1742 22.9609 11.9958C22.4094 11.8397 21.72 11.7505 20.87 11.7505ZM20.2496 18.5078H10.9206V15.0288H20.2496C20.778 15.0288 21.1456 15.118 21.3295 15.2741C21.5133 15.4302 21.6282 15.7201 21.6282 16.1439V17.3928C21.6282 17.8388 21.5133 18.1287 21.3295 18.2848C21.1456 18.4409 20.778 18.5078 20.2496 18.5078Z" fill="black"/>
</svg>
