<svg width="34" height="35" viewBox="0 0 34 35" fill="none" xmlns="http://www.w3.org/2000/svg">
<rect y="0.700195" width="34" height="34" rx="17" fill="white"/>
<path d="M26.0736 13.4812C25.9992 15.2372 24.7641 17.6591 22.3683 20.7469C19.8906 23.9537 17.7998 25.5571 16.096 25.5571C15.0394 25.5571 14.1466 24.5787 13.4174 22.6219C13.09 21.4314 12.5989 19.6382 11.9442 17.2424C11.4085 15.293 10.8244 14.3183 10.1919 14.3183C10.058 14.3183 9.58555 14.601 8.77454 15.1665L7.91516 14.0728C8.09373 13.9165 8.49552 13.5575 9.12052 12.9957C9.74552 12.434 10.2291 12.0043 10.5714 11.7067C11.7321 10.6799 12.6287 10.1367 13.2611 10.0772C13.968 10.0103 14.5372 10.2167 14.9687 10.6966C15.4003 11.1765 15.7016 11.9336 15.8728 12.9678C16.2001 15.1033 16.4457 16.4909 16.6094 17.1308C17.0186 18.9835 17.465 19.9098 17.9486 19.9098C18.3281 19.9098 18.901 19.3108 19.6674 18.1129C20.4189 16.915 20.8244 15.9998 20.8839 15.3674C20.9806 14.3332 20.5751 13.8161 19.6674 13.8161C19.2433 13.8161 18.7931 13.9128 18.3169 14.1062C19.2098 11.1821 20.9174 9.761 23.4397 9.84284C25.3073 9.90237 26.1853 11.1152 26.0736 13.4812Z" fill="black"/>
</svg>
