<svg width="34" height="35" viewBox="0 0 34 35" fill="none" xmlns="http://www.w3.org/2000/svg">
<rect y="0.700195" width="34" height="34" rx="17" fill="white"/>
<path d="M27.6765 13.5017C27.8476 13.9782 27.2896 15.0725 26.0023 16.7847C25.8237 17.0229 25.5819 17.3393 25.2768 17.7339C24.9792 18.1135 24.7745 18.3815 24.6629 18.5379C24.5513 18.6942 24.4378 18.8785 24.3225 19.0906C24.2072 19.3028 24.1625 19.4591 24.1886 19.5596C24.2146 19.6601 24.263 19.7885 24.3337 19.9449C24.4043 20.1012 24.5253 20.2613 24.6964 20.425C24.8675 20.5888 25.0796 20.7861 25.3326 21.0169C25.3624 21.0318 25.381 21.0467 25.3884 21.0615C26.4376 22.0368 27.1482 22.8594 27.5202 23.5294C27.5426 23.5666 27.5668 23.6131 27.5928 23.669C27.6188 23.7248 27.6449 23.8234 27.6709 23.9649C27.697 24.1063 27.6951 24.2329 27.6653 24.3445C27.6356 24.4562 27.5426 24.5586 27.3863 24.6516C27.23 24.7447 27.0105 24.7912 26.7278 24.7912L23.8704 24.8359C23.6919 24.8731 23.4835 24.8545 23.2454 24.78C23.0073 24.7056 22.8138 24.6237 22.665 24.5344L22.4418 24.4004C22.2186 24.244 21.9581 24.0058 21.6605 23.6857C21.3628 23.3656 21.108 23.0771 20.8959 22.8203C20.6839 22.5635 20.4569 22.3476 20.2151 22.1726C19.9732 21.9977 19.763 21.94 19.5844 21.9995C19.5621 22.007 19.5324 22.02 19.4952 22.0386C19.458 22.0572 19.3947 22.1112 19.3054 22.2005C19.2161 22.2899 19.1361 22.3997 19.0654 22.53C18.9948 22.6602 18.9315 22.8538 18.8757 23.1106C18.8199 23.3675 18.7957 23.6559 18.8031 23.976C18.8031 24.0877 18.7901 24.1901 18.7641 24.2831C18.738 24.3762 18.7101 24.445 18.6804 24.4897L18.6357 24.5455C18.5018 24.687 18.3046 24.7689 18.0442 24.7912H16.7606C16.2323 24.821 15.6891 24.7596 15.131 24.607C14.573 24.4544 14.0837 24.2571 13.6633 24.0151C13.2429 23.7732 12.8597 23.5275 12.5137 23.2781C12.1677 23.0287 11.9054 22.8147 11.7268 22.636L11.4477 22.368C11.3733 22.2936 11.271 22.1819 11.1408 22.033C11.0106 21.8842 10.7446 21.5454 10.3428 21.0169C9.94095 20.4883 9.54658 19.9263 9.15965 19.3307C8.77272 18.7352 8.31696 17.9498 7.79237 16.9745C7.26778 15.9993 6.78226 14.9869 6.3358 13.9372C6.29115 13.8181 6.26883 13.7176 6.26883 13.6357C6.26883 13.5538 6.27999 13.4943 6.30231 13.457L6.34696 13.39C6.45857 13.2486 6.67064 13.1779 6.98316 13.1779L10.0414 13.1555C10.1307 13.1704 10.2163 13.1946 10.2981 13.2281C10.38 13.2616 10.4395 13.2933 10.4767 13.323L10.5325 13.3565C10.6516 13.4384 10.7409 13.5575 10.8004 13.7139C10.9492 14.0861 11.1203 14.4714 11.3138 14.8696C11.5073 15.2679 11.6598 15.5713 11.7714 15.7797L11.95 16.1035C12.1658 16.5502 12.3741 16.9373 12.5751 17.2649C12.776 17.5924 12.9564 17.8474 13.1164 18.0298C13.2764 18.2122 13.4308 18.3555 13.5796 18.4597C13.7284 18.5639 13.8549 18.616 13.9591 18.616C14.0632 18.616 14.1637 18.5974 14.2604 18.5602C14.2753 18.5528 14.2939 18.5342 14.3162 18.5044C14.3386 18.4746 14.3832 18.3927 14.4502 18.2587C14.5171 18.1247 14.5674 17.9498 14.6009 17.7339C14.6343 17.518 14.6697 17.2165 14.7069 16.8294C14.7441 16.4423 14.7441 15.977 14.7069 15.4335C14.692 15.1358 14.6585 14.864 14.6064 14.6184C14.5544 14.3727 14.5023 14.2015 14.4502 14.1047L14.3832 13.9707C14.1972 13.7176 13.8809 13.5575 13.4345 13.4905C13.3378 13.4757 13.3564 13.3863 13.4903 13.2225C13.6093 13.0811 13.7507 12.9694 13.9144 12.8875C14.3088 12.694 15.198 12.6047 16.582 12.6195C17.1922 12.627 17.6944 12.6754 18.0888 12.7647C18.2376 12.8019 18.3623 12.8522 18.4627 12.9155C18.5632 12.9787 18.6394 13.0681 18.6915 13.1835C18.7436 13.2989 18.7827 13.418 18.8087 13.5408C18.8348 13.6636 18.8478 13.833 18.8478 14.0489C18.8478 14.2648 18.8441 14.4695 18.8366 14.663C18.8292 14.8566 18.8199 15.119 18.8087 15.4503C18.7976 15.7816 18.792 16.0887 18.792 16.3715C18.792 16.4534 18.7883 16.6098 18.7808 16.8405C18.7734 17.0713 18.7715 17.25 18.7752 17.3765C18.779 17.5031 18.792 17.6539 18.8143 17.8288C18.8366 18.0037 18.8794 18.1489 18.9427 18.2643C19.0059 18.3797 19.0896 18.4709 19.1938 18.5379C19.2533 18.5528 19.3166 18.5677 19.3835 18.5825C19.4505 18.5974 19.5472 18.5565 19.6737 18.4597C19.8002 18.3629 19.9416 18.2345 20.0979 18.0745C20.2541 17.9144 20.4476 17.665 20.6783 17.3263C20.9089 16.9876 21.1619 16.5874 21.4373 16.1259C21.8837 15.3517 22.2818 14.5142 22.6315 13.6134C22.6613 13.5389 22.6985 13.4738 22.7431 13.418C22.7878 13.3621 22.8287 13.323 22.8659 13.3007L22.9106 13.2672C22.9254 13.2598 22.944 13.2505 22.9664 13.2393C22.9887 13.2281 23.0371 13.217 23.1115 13.2058C23.1859 13.1946 23.2603 13.1928 23.3347 13.2002L26.5492 13.1779C26.8394 13.1407 27.0775 13.15 27.2635 13.2058C27.4496 13.2616 27.5649 13.323 27.6095 13.39L27.6765 13.5017Z" fill="black"/>
</svg>
