<svg width="34" height="35" viewBox="0 0 34 35" fill="none" xmlns="http://www.w3.org/2000/svg">
<rect y="0.700195" width="34" height="34" rx="17" fill="white"/>
<path d="M18.8473 19.1127C18.8473 19.1127 18.9199 19.0225 19.065 18.842C19.2102 18.6614 19.3311 18.5712 19.4279 18.5712C19.5246 18.5712 19.8875 18.735 20.5165 19.0625C21.1455 19.39 21.4786 19.5872 21.5158 19.6542C21.5307 19.6914 21.5381 19.7473 21.5381 19.8217C21.5381 20.0674 21.4749 20.3502 21.3483 20.6703C21.2292 20.9606 20.965 21.2044 20.5556 21.4016C20.1462 21.5989 19.7666 21.6975 19.4167 21.6975C18.9924 21.6975 18.2853 21.4667 17.2953 21.0052C16.5658 20.6703 15.9331 20.2311 15.3972 19.6877C14.8612 19.1443 14.3104 18.4558 13.7447 17.6221C13.2088 16.8257 12.9445 16.1036 12.952 15.4561V15.3667C12.9743 14.6894 13.2497 14.1013 13.7782 13.6026C13.9568 13.4388 14.1504 13.357 14.3588 13.357C14.4035 13.357 14.4705 13.3625 14.5598 13.3737C14.6491 13.3849 14.7198 13.3905 14.7719 13.3905C14.9133 13.3905 15.012 13.4147 15.0678 13.463C15.1236 13.5114 15.1813 13.6138 15.2409 13.7701C15.3004 13.919 15.4232 14.2465 15.6093 14.7526C15.7954 15.2588 15.8885 15.5379 15.8885 15.59C15.8885 15.7464 15.7601 15.9604 15.5033 16.232C15.2464 16.5037 15.118 16.6768 15.118 16.7512C15.118 16.8033 15.1367 16.8592 15.1739 16.9187C15.427 17.4621 15.8066 17.972 16.3127 18.4484C16.7296 18.8429 17.2916 19.2188 17.9987 19.5761C18.088 19.6282 18.1699 19.6542 18.2443 19.6542C18.356 19.6542 18.557 19.4737 18.8473 19.1127ZM17.1613 24.4888C18.1066 24.4888 19.0129 24.3027 19.8801 23.9306C20.7473 23.5584 21.4935 23.0597 22.1187 22.4344C22.744 21.8091 23.2427 21.0629 23.6149 20.1958C23.9871 19.3286 24.1732 18.4223 24.1732 17.477C24.1732 16.5317 23.9871 15.6254 23.6149 14.7582C23.2427 13.891 22.744 13.1448 22.1187 12.5196C21.4935 11.8943 20.7473 11.3956 19.8801 11.0234C19.0129 10.6512 18.1066 10.4651 17.1613 10.4651C16.216 10.4651 15.3097 10.6512 14.4425 11.0234C13.5754 11.3956 12.8291 11.8943 12.2039 12.5196C11.5786 13.1448 11.0799 13.891 10.7077 14.7582C10.3355 15.6254 10.1495 16.5317 10.1495 17.477C10.1495 18.988 10.5961 20.3576 11.4893 21.5858L10.6072 24.1874L13.3093 23.3276C14.4853 24.1018 15.7694 24.4888 17.1613 24.4888ZM13.8954 9.72822C13.8954 9.72822 14.155 9.61657 14.6742 9.39326C15.1934 9.16995 16.0224 9.0583 17.1613 9.0583C18.3002 9.0583 19.3888 9.28161 20.4272 9.72822C21.4656 10.1748 22.3606 10.774 23.1124 11.5258C23.8642 12.2776 24.4635 13.1727 24.9101 14.2111C25.3567 15.2495 25.58 16.3381 25.58 17.477C25.58 18.6159 25.3567 19.7045 24.9101 20.7429C24.4635 21.7812 23.8642 22.6763 23.1124 23.4281C22.3606 24.1799 21.4656 24.7791 20.4272 25.2257C19.3888 25.6724 18.3002 25.8957 17.1613 25.8957C15.7098 25.8957 14.3514 25.5458 13.0859 24.8461L8.42999 26.3423L9.94848 21.8203C9.14458 20.4954 8.74262 19.0476 8.74262 17.477C8.74262 16.3381 8.96593 15.2495 9.41254 14.2111C9.85916 13.1727 10.4584 12.2776 11.2102 11.5258C11.962 10.774 12.8571 10.1748 13.8954 9.72822Z" fill="black"/>
</svg>
