<svg width="34" height="35" viewBox="0 0 34 35" fill="none" xmlns="http://www.w3.org/2000/svg">
<rect y="0.700195" width="34" height="34" rx="17" fill="white"/>
<path d="M19.2715 21.586V23.9419C19.2715 24.4406 19.1264 24.6899 18.8361 24.6899C18.6649 24.6899 18.4974 24.6081 18.3337 24.4443V21.0835C18.4974 20.9198 18.6649 20.8379 18.8361 20.8379C19.1264 20.8379 19.2715 21.0873 19.2715 21.586ZM23.0454 21.5971V22.1107H22.0406V21.5971C22.0406 21.091 22.208 20.8379 22.543 20.8379C22.878 20.8379 23.0454 21.091 23.0454 21.5971ZM12.2597 19.1631H13.4544V18.1135H9.9708V19.1631H11.1432V25.5162H12.2597V19.1631ZM15.4753 25.5162H16.469V20.0005H15.4753V24.221C15.252 24.5336 15.0399 24.6899 14.8389 24.6899C14.7049 24.6899 14.6268 24.6118 14.6044 24.4555C14.597 24.4331 14.5933 24.3029 14.5933 24.0647V20.0005H13.5995V24.3661C13.5995 24.7309 13.6293 25.0026 13.6889 25.1812C13.7782 25.4566 13.9941 25.5943 14.3365 25.5943C14.6937 25.5943 15.0734 25.3673 15.4753 24.9132V25.5162ZM20.2653 23.8637V21.6641C20.2653 21.1207 20.2318 20.7523 20.1648 20.5588C20.0382 20.1419 19.774 19.9335 19.372 19.9335C18.9999 19.9335 18.6537 20.1345 18.3337 20.5364V18.1135H17.3399V25.5162H18.3337V24.9802C18.6686 25.3896 19.0147 25.5943 19.372 25.5943C19.774 25.5943 20.0382 25.3896 20.1648 24.9802C20.2318 24.7793 20.2653 24.4071 20.2653 23.8637ZM24.0392 23.7521V23.6069H23.0231C23.0231 23.9865 23.0157 24.2136 23.0008 24.288C22.9487 24.556 22.7998 24.6899 22.5542 24.6899C22.2118 24.6899 22.0406 24.4331 22.0406 23.9195V22.9481H24.0392V21.7981C24.0392 21.2101 23.9387 20.7783 23.7377 20.5029C23.4474 20.1233 23.0529 19.9335 22.5542 19.9335C22.048 19.9335 21.6498 20.1233 21.3595 20.5029C21.1511 20.7783 21.0468 21.2101 21.0468 21.7981V23.7297C21.0468 24.3178 21.1548 24.7495 21.3706 25.0249C21.6609 25.4045 22.0629 25.5943 22.5765 25.5943C23.1124 25.5943 23.5144 25.3971 23.7824 25.0026C23.9163 24.8016 23.9945 24.6006 24.0168 24.3996C24.0317 24.3326 24.0392 24.1168 24.0392 23.7521ZM17.2506 13.5581V11.2133C17.2506 10.6997 17.0906 10.4429 16.7705 10.4429C16.4504 10.4429 16.2904 10.6997 16.2904 11.2133V13.5581C16.2904 14.0791 16.4504 14.3396 16.7705 14.3396C17.0906 14.3396 17.2506 14.0791 17.2506 13.5581ZM25.2785 21.9433C25.2785 23.6851 25.1817 24.9877 24.9882 25.8511C24.884 26.2903 24.6681 26.6588 24.3406 26.9565C24.0131 27.2543 23.6335 27.4255 23.2018 27.4701C21.8321 27.6264 19.7665 27.7046 17.005 27.7046C14.2434 27.7046 12.1778 27.6264 10.8082 27.4701C10.3765 27.4255 9.99499 27.2543 9.66375 26.9565C9.33251 26.6588 9.11851 26.2903 9.02174 25.8511C8.82821 25.0175 8.73145 23.7148 8.73145 21.9433C8.73145 20.2015 8.82821 18.8988 9.02174 18.0354C9.12595 17.5962 9.34182 17.2278 9.66934 16.93C9.99685 16.6323 10.3802 16.4573 10.8194 16.4052C12.1815 16.2564 14.2434 16.1819 17.005 16.1819C19.7665 16.1819 21.8321 16.2564 23.2018 16.4052C23.6335 16.4573 24.015 16.6323 24.3462 16.93C24.6774 17.2278 24.8914 17.5962 24.9882 18.0354C25.1817 18.8691 25.2785 20.1717 25.2785 21.9433ZM14.1355 7.69626H15.2743L13.9233 12.1512V15.1771H12.8068V12.1512C12.7026 11.6004 12.4756 10.8114 12.1257 9.78418C11.8503 9.01749 11.6084 8.32152 11.4 7.69626H12.5835L13.3762 10.6327L14.1355 7.69626ZM18.2667 11.4143V13.3683C18.2667 13.9712 18.1625 14.4104 17.954 14.6858C17.6712 15.0654 17.2767 15.2552 16.7705 15.2552C16.2718 15.2552 15.881 15.0654 15.5981 14.6858C15.3897 14.4029 15.2855 13.9637 15.2855 13.3683V11.4143C15.2855 10.8188 15.3897 10.3834 15.5981 10.108C15.881 9.72835 16.2718 9.53854 16.7705 9.53854C17.2767 9.53854 17.6712 9.72835 17.954 10.108C18.1625 10.3834 18.2667 10.8188 18.2667 11.4143ZM22.0071 9.60553V15.1771H20.991V14.563C20.5965 15.0245 20.2132 15.2552 19.841 15.2552C19.4986 15.2552 19.279 15.1175 19.1822 14.8421C19.1227 14.6634 19.0929 14.3843 19.0929 14.0047V9.60553H20.109V13.7032C20.109 13.9489 20.1127 14.0791 20.1201 14.094C20.1424 14.2578 20.2206 14.3396 20.3546 14.3396C20.5556 14.3396 20.7677 14.1796 20.991 13.8595V9.60553H22.0071Z" fill="black"/>
</svg>
